Coordinates
version=1
nRows=6
nColumns=36
inDegrees=yes

Units are S.I. units (second, meters, Newtons, ...)
If the header above contains a line with 'inDegrees', this indicates whether rotational values are in degrees (yes) or radians (no).

endheader
time	pelvis_tilt	pelvis_list	pelvis_rotation	pelvis_tx	pelvis_ty	pelvis_tz	hip_flexion_r	hip_adduction_r	hip_rotation_r	knee_angle_r	knee_angle_r_beta	ankle_angle_r	subtalar_angle_r	mtp_angle_r	hip_flexion_l	hip_adduction_l	hip_rotation_l	knee_angle_l	knee_angle_l_beta	ankle_angle_l	subtalar_angle_l	mtp_angle_l	lumbar_extension	lumbar_bending	lumbar_rotation	arm_flex_r	arm_add_r	arm_rot_r	elbow_flex_r	pro_sup_r	arm_flex_l	arm_add_l	arm_rot_l	elbow_flex_l	pro_sup_l
      0.00000000	      6.05384766	     -1.37508385	      1.54982221	     -0.06357273	      1.28866526	      0.03052906	     -1.98939100	      3.22748080	     -4.78552113	      2.06213740	      0.03599109	      0.30271783	      3.25346584	     -6.97571843	     -1.74877850	     -1.78411708	     -6.34294027	      3.98065544	      0.06947554	      5.56629036	      3.98817433	     -6.97571843	     -8.37954819	      3.30037182	     -3.55723179	      4.55975482	     -7.12841983	     23.06997896	     33.68594768	     72.14718163	     -2.16553893	     -6.52332785	     13.90294782	     30.80427386	     69.21450987
      0.01666670	      5.43307077	     -0.34181911	      1.29044127	     -0.06680272	      1.28937650	      0.03040005	     -1.43831132	      2.25830812	     -4.98587313	      0.95133191	      0.01660387	      0.66844256	      6.66607968	     -6.98737516	     -1.82105879	     -0.63608756	     -8.42943428	      2.50607423	      0.04373925	      4.23626167	      5.14217209	     -6.98737516	     -6.38789496	      2.39445936	     -3.50505589	      4.60909660	     -7.11861973	     22.64893072	     34.01991421	     72.70963280	     -2.35858612	     -6.45541138	     14.21909435	     30.80116297	     69.86903478
      0.03333330	      4.17476953	     -0.10557549	      0.87221688	     -0.06555177	      1.28138191	      0.03214497	     -0.11982377	      2.20653609	     -5.49619845	      0.60451519	      0.01055078	      1.43831481	      7.98766150	     -7.10482526	     -0.47080423	     -0.23906970	    -10.54662610	      2.54724239	      0.04445777	      3.79599946	      6.27349376	     -7.10482526	     -4.71497652	      1.97637431	     -1.91775264	      2.82292797	     -6.55333481	     16.68943255	     35.93913082	     78.33686078	     -1.50943326	     -6.34361502	     14.96739866	     29.41486501	     75.37579431
      0.05000000	      3.56166525	     -0.28433114	      0.66928116	     -0.06351735	      1.28176952	      0.03247016	      0.47917360	      2.41251877	     -5.61821621	      0.56232969	      0.00981450	      1.57465144	      8.57539086	     -7.40893190	     -0.07797415	     -0.29771745	    -11.96093116	      2.37092154	      0.04138039	      3.63658929	      8.03145886	     -7.40893190	     -3.83228983	      2.07204341	     -1.98798270	      2.59379873	     -6.21269097	     14.92729706	     36.05234151	     83.90051107	     -2.02479069	     -5.77515193	     11.82145187	     29.14586052	     79.62664373
      0.06666670	      2.95199587	     -0.35834367	      0.49939345	     -0.06463186	      1.27893796	      0.03150200	      1.21099174	      2.48933228	     -5.67732278	      0.56371532	      0.00983869	      2.15526175	      8.90372007	     -7.41781512	      0.61505490	     -0.36190041	    -13.16656650	      2.40888071	      0.04204290	      4.07435244	      9.43453154	     -7.41781512	     -3.11099409	      2.14132310	     -1.76992444	      2.20739066	     -6.05495529	     14.22177534	     36.67807313	     83.52826168	     -2.27861125	     -5.46517737	     10.88959544	     29.18935156	     79.47727292
      0.08333330	      2.42231927	     -0.37661389	      0.44628841	     -0.06411726	      1.28278569	      0.03213028	      1.67813275	      2.53016259	     -5.36893946	      0.58883446	      0.01027710	      2.02046055	      9.17684948	     -7.41917561	      1.25003770	     -0.38021955	    -13.68519168	      2.45333813	      0.04281883	      3.80542107	     10.23978625	     -7.41917561	     -2.35227672	      2.08366450	     -1.67938401	      1.89258837	     -5.87977547	     13.96328115	     36.84063779	     83.67304796	     -2.56667434	     -5.25679136	     10.34723540	     29.24261071	     79.67648375
